<?xml version="1.0" encoding="UTF-8"?>
<svg width="86px" height="86px" viewBox="0 0 86 86" version="1.1" xmlns="http://www.w3.org/2000/svg" xmlns:xlink="http://www.w3.org/1999/xlink">
    <!-- Generator: Sketch 43.2 (39069) - http://www.bohemiancoding.com/sketch -->
    <title>Symbol</title>
    <desc>Created with Sketch.</desc>
    <defs></defs>
    <g id="Page-1" stroke="none" stroke-width="1" fill="none" fill-rule="evenodd">
        <g id="Logo-formats" transform="translate(-498.000000, -533.000000)" fill="#EF3154">
            <g id="Symbol" transform="translate(498.000000, 533.000000)">
                <path d="M4,82 L82,82 L82,4 L4,4 L4,82 Z M0,0 L86,0 L86,86 L0,86 L0,0 Z" id="Rectangle-2" fill-rule="nonzero"></path>
                <path d="M19.304,40.464 L28.424,40.464 C31.016013,40.464 32.8799943,40.0080046 34.016,39.096 C35.1520057,38.1839954 35.72,36.8160091 35.72,34.992 C35.72,33.7759939 35.5280019,32.8160035 35.144,32.112 C34.7599981,31.4079965 34.2320034,30.8640019 33.56,30.48 C32.8879966,30.0959981 32.1120044,29.8480006 31.232,29.736 C30.3519956,29.6239994 29.416005,29.568 28.424,29.568 L19.304,29.568 L19.304,40.464 Z M14.744,25.728 L27.176,25.728 C27.9120037,25.728 28.7039958,25.7359999 29.552,25.752 C30.4000042,25.7680001 31.2399958,25.8159996 32.072,25.896 C32.9040042,25.9760004 33.6799964,26.0959992 34.4,26.256 C35.1200036,26.4160008 35.7359974,26.6559984 36.248,26.976 C37.3680056,27.6480034 38.3199961,28.5759941 39.104,29.76 C39.8880039,30.9440059 40.28,32.3999914 40.28,34.128 C40.28,35.9520091 39.8400044,37.5279934 38.96,38.856 C38.0799956,40.1840066 36.8240082,41.1679968 35.192,41.808 L35.192,41.904 C37.3040106,42.3520022 38.9199944,43.3119926 40.04,44.784 C41.1600056,46.2560074 41.72,48.0479894 41.72,50.16 C41.72,51.4080062 41.4960022,52.6239941 41.048,53.808 C40.5999978,54.9920059 39.9360044,56.0399954 39.056,56.952 C38.1759956,57.8640046 37.0880065,58.5999972 35.792,59.16 C34.4959935,59.7200028 33.0000085,60 31.304,60 L14.744,60 L14.744,25.728 Z M19.304,56.16 L30.728,56.16 C32.7440101,56.16 34.3199943,55.6160054 35.456,54.528 C36.5920057,53.4399946 37.16,51.9360096 37.16,50.016 C37.16,48.8959944 36.9520021,47.9680037 36.536,47.232 C36.1199979,46.4959963 35.5680034,45.9120022 34.88,45.48 C34.1919966,45.0479978 33.4000045,44.7440009 32.504,44.568 C31.6079955,44.3919991 30.6800048,44.304 29.72,44.304 L19.304,44.304 L19.304,56.16 Z M47.624,25.728 L47.624,60 L71.432,60 L71.432,56.16 L52.184,56.16 L52.184,44.304 L69.992,44.304 L69.992,40.464 L52.184,40.464 L52.184,29.568 L71.288,29.568 L71.288,25.728 L47.624,25.728 Z" id="BE"></path>
            </g>
        </g>
    </g>
</svg>